<svg height="512" viewBox="0 0 128 128" width="512" xmlns="http://www.w3.org/2000/svg"><g id="Layer_3" data-name="Layer 3"><path d="m123.65 40.8c-.01-.05-.795-1.947-.8-1.952a63.6 63.6 0 0 0 -10.85-17.168c-.2-.22-.4-.45-.61-.67a63.767 63.767 0 1 0 12.26 19.79zm-59.66 83.7a60.525 60.525 0 1 1 60.5-60.5 60.568 60.568 0 0 1 -60.5 60.5z"/><path d="m104.284 98.976h.083a1.753 1.753 0 0 0 1.267-.634 53.974 53.974 0 0 0 -75.986-75.988 1.75 1.75 0 0 0 -.123 2.587l45.339 45.339 11.566 11.566 16.082 16.082.535.535a1.75 1.75 0 0 0 1.237.513zm-40.296-85.476a50.473 50.473 0 0 1 40.146 81.1l-14.788-14.788-.728-21.3c5.248-2.818 8.7-8.985 8.7-15.754 0-9.581-6.729-17.375-15-17.375s-15 7.794-15 17.375c0 6.77 3.45 12.936 8.7 15.754l-.264 7.7-15.2-15.2a10.307 10.307 0 0 0 .116-1.449v-19.781a4.4 4.4 0 1 0 -8.8 0v10.568a.872.872 0 0 1 -1.117.861l-.653-.653a.77.77 0 0 1 -.031-.208v-10.568a4.4 4.4 0 1 0 -8.8 0v1.944l-1.8-1.8v-.145a4.4 4.4 0 0 0 -4.4-4.4c-.044 0-.09.009-.134.011l-1.539-1.539a50.548 50.548 0 0 1 30.592-10.353zm21.732 62.686-6.584-6.586.414-12.11a1.749 1.749 0 0 0 -1.061-1.668c-4.59-1.965-7.674-7.216-7.674-13.066 0-7.65 5.159-13.875 11.5-13.875s11.5 6.225 11.5 13.875c0 5.85-3.084 11.1-7.675 13.066a1.749 1.749 0 0 0 -1.061 1.668zm-32.234-32.235a4.4 4.4 0 0 0 1.875-3.6v-10.569a.9.9 0 1 1 1.8 0v17.845zm-6.926-6.925-1.8-1.8v-5.444a.9.9 0 1 1 1.8 0z"/><path d="m78.13 82.738-25.675-25.675-18.807-18.806-8.72-8.72a1.777 1.777 0 0 0 -1.32-.511 1.753 1.753 0 0 0 -1.267.634 53.974 53.974 0 0 0 75.985 75.985 1.75 1.75 0 0 0 .123-2.587l-9.107-9.108zm.374 5.324 7.778 7.778a4.068 4.068 0 0 1 -3.967 3.278 4.049 4.049 0 0 1 -4.046-4.187zm-14.516 26.438a50.474 50.474 0 0 1 -40.146-81.1l6.819 6.819v9.344a10.6 10.6 0 0 0 8.7 10.4l-1.237 34.848a7.541 7.541 0 1 0 15.073.006l-.476-15a1.75 1.75 0 0 0 -1.748-1.694h-.057a1.75 1.75 0 0 0 -1.693 1.8l.476 15a4.041 4.041 0 1 1 -8.077 0l1.293-36.483a1.75 1.75 0 0 0 -1.736-1.812 7.087 7.087 0 0 1 -7.018-7.066v-5.843l2.611 2.611 11.674 11.67a1.8 1.8 0 0 0 -.039.436l.52 14.68a1.75 1.75 0 0 0 3.5-.123l-.4-11.418 23.1 23.1-.346 10.136a7.548 7.548 0 0 0 7.544 7.807 7.573 7.573 0 0 0 6.674-4.07l5.6 5.6a50.541 50.541 0 0 1 -30.611 10.352z"/></g></svg>