<?xml version="1.0"?>
<svg xmlns="http://www.w3.org/2000/svg" viewBox="0 0 64 64" width="512" height="512"><g id="outline"><path d="M48.707,2.293a1,1,0,0,0-1.414,0l-5,5-13,13L11.438,38.148,6.629,40.071l0,0-.01.005a1.012,1.012,0,0,0-.289.192c-.01.01-.024.013-.034.023l-4,4a1,1,0,0,0,.391,1.656l2.525.842.843,2.525a1,1,0,0,0,.632.633l2.525.842.843,2.525a1,1,0,0,0,.632.633l2.525.842.843,2.525a1,1,0,0,0,.632.633l2.525.842.843,2.525a1,1,0,0,0,1.655.391l4-4a.4.4,0,0,0,.022-.034.975.975,0,0,0,.194-.291l0-.007,0,0,1.924-4.81L49.707,28.707l7-7,5-5a1,1,0,0,0,0-1.414ZM38.37,29.862,33.024,23.18l12.7,4.678ZM48.746,26.84,31.812,20.6,43,9.414,54.586,21ZM19.437,59.149l-.489-1.465a1,1,0,0,0-.632-.633l-2.525-.842-.843-2.525a1,1,0,0,0-.632-.633l-2.525-.842-.843-2.525a1,1,0,0,0-.632-.633l-2.525-.842-.843-2.525a1,1,0,0,0-.632-.633l-1.464-.488L7,42.414,21.586,57Zm4.856-7.856a1.016,1.016,0,0,0-.222.335l-1.436,3.593L8.779,41.365l3.592-1.436a1.01,1.01,0,0,0,.336-.222L29.917,22.5l1.854,2.318-6.478,6.478,1.414,1.414,6.321-6.321,4.076,5.1-7.811,7.812,1.414,1.414,9.186-9.187,5.737-1.564ZM56,19.586,44.414,8,48,4.414,59.586,16Z"/><rect x="41" y="14" width="2" height="2"/><rect x="39" y="19" width="2" height="2"/><rect x="49" y="9" width="2" height="2"/><rect x="49" y="20" width="2" height="2"/><path d="M22.437,46.149,20.145,39.27l.562-.563-1.414-1.414-1,1a1,1,0,0,0-.241,1.023l3,9a1,1,0,0,0,1.655.391l2-2-1.414-1.414Z"/><path d="M27.383,36.076a1,1,0,0,0-1.09.217l-1.586,1.586-.717-5.021-1.98.284,1,7a1,1,0,0,0,1.7.565L26,39.414V45h2V37A1,1,0,0,0,27.383,36.076Z"/><rect x="28.172" y="32" width="5.657" height="2" transform="translate(-14.255 31.586) rotate(-45)"/></g></svg>
