<svg height="512pt" viewBox="0 0 512.00169 512" width="512pt" xmlns="http://www.w3.org/2000/svg"><path d="m130.203125 480.78125c3.898437-3.910156 3.898437-10.238281 0-14.148438-3.910156-3.902343-10.238281-3.902343-14.140625 0-3.90625 3.910157-3.90625 10.238282 0 14.148438 3.898438 3.898438 10.230469 3.898438 14.140625 0zm0 0"/><path d="m101.914062 494.917969c-3.898437-3.910157-10.230468-3.910157-14.140624 0-3.898438 3.902343-3.898438 10.242187 0 14.140625 3.910156 3.910156 10.242187 3.910156 14.140624 0 3.910157-3.898438 3.910157-10.238282 0-14.140625zm0 0"/><path d="m73.636719 424.214844c-3.910157 3.898437-3.910157 10.238281 0 14.140625 3.902343 3.90625 10.238281 3.90625 14.140625 0 3.910156-3.902344 3.910156-10.242188 0-14.140625-3.902344-3.910156-10.242188-3.910156-14.140625 0zm0 0"/><path d="m38.28125 459.5625c-3.902344 3.910156-3.902344 10.238281 0 14.148438 3.910156 3.898437 10.238281 3.898437 14.148438 0 3.898437-3.910157 3.898437-10.238282 0-14.148438-3.910157-3.898438-10.242188-3.898438-14.148438 0zm0 0"/><path d="m17.070312 509.058594c3.910157-3.898438 3.910157-10.238282 0-14.140625-3.898437-3.910157-10.238281-3.910157-14.136718 0-3.910156 3.902343-3.910156 10.242187 0 14.140625 3.898437 3.910156 10.238281 3.910156 14.136718 0zm0 0"/><path d="m315.457031.300781c-12.582031 1.476563-23.082031 8.472657-30.375 20.238281l-51.503906 77.476563c-3.058594 4.597656-1.808594 10.804687 2.789063 13.859375 4.601562 3.058594 10.808593 1.808594 13.863281-2.789062l34.71875-52.226563 170.183593 170.179687-129.734374 86.242188-126.6875-126.6875 7.226562-10.871094c3.058594-4.597656 1.808594-10.804687-2.792969-13.859375-4.597656-3.058593-10.804687-1.808593-13.863281 2.792969l-45.054688 67.78125c-9.90625-2.320312-20.695312.472656-28.164062 7.941406-8.085938 8.089844-10.546875 19.542969-7.570312 29.699219l-30.945313 10.3125c-1.492187.496094-2.886719 1.390625-3.910156 2.414063-13.914063 13.914062-18.144531 35.292968-11.917969 60.199218 5.773438 23.101563 20.046875 46.921875 40.199219 67.074219 33.738281 33.730469 93.566406 61.308594 126.929687 28.601563.011719-.015626.027344-.027344.039063-.039063 1.226562-1.203125 2.128906-2.4375 2.714843-4.195313l10.320313-30.960937c10.402344 3.046875 21.820313.316406 29.691406-7.554687 7.464844-7.464844 10.261719-18.246094 7.941407-28.160157l211.898437-140.859375c11.773437-7.296875 18.773437-17.800781 20.25-30.386718 4.269531-36.371094-37.949219-83.785157-75.203125-121.03125-37.242188-37.25-84.664062-79.460938-121.042969-75.191407zm-7.050781 324.273438-39.484375 26.246093-107.753906-107.753906 26.25-39.480468zm-187.976562-37.394531 104.382812 104.378906-7.066406 21.214844-118.527344-118.527344zm-4.375 108.757812c-30.144532-30.152344-43.832032-68.582031-34.007813-90.578125l124.585937 124.585937c-21.996093 9.824219-60.425781-3.863281-90.578124-34.007812zm141.417968-14.148438c-3.902344 3.898438-10.25 3.898438-14.148437 0l-113.121094-113.121093c-3.90625-3.910157-3.90625-10.238281 0-14.148438 3.769531-3.765625 10.121094-4.015625 14.136719 0l113.128906 113.132813c3.984375 3.976562 3.800781 10.335937.003906 14.136718zm234.367188-187.597656c-.777344 6.617188-4.28125 11.632813-11.027344 15.785156-.101562.0625-.199219.125-.296875.191407l-8.394531 5.578125-175.875-175.875s5.707031-8.59375 5.769531-8.691406c4.148437-6.742188 9.160156-10.242188 15.773437-11.019532 31.4375-3.675781 86.476563 51.378906 104.570313 69.472656 18.097656 18.09375 73.167969 73.148438 69.480469 104.558594zm0 0"/><path d="m212.910156 129.953125c-3.898437 3.902344-3.898437 10.230469 0 14.140625 3.910156 3.898438 10.238282 3.898438 14.148438 0 3.898437-3.910156 3.898437-10.238281 0-14.140625-3.910156-3.910156-10.238282-3.910156-14.148438 0zm0 0"/></svg>