<svg height="511pt" viewBox="0 0 511 511.9995" width="511pt" xmlns="http://www.w3.org/2000/svg"><path d="m508.667969 113.394531c-4.003907-5.097656-10.589844-7.117187-16.792969-5.214843l-7.992188 2.496093 3.828126-12.277343c1.675781-5.371094.242187-11.175782-3.726563-15.152344-3.964844-3.988282-9.777344-5.382813-15.160156-3.746094l-12.285157 3.828125 3.828126-12.285156c1.667968-5.371094.230468-11.183594-3.753907-15.160157-3.984375-3.976562-9.804687-5.421874-15.144531-3.726562l-12.285156 3.828125 3.828125-12.285156c1.679687-5.371094.242187-11.175781-3.734375-15.152344-3.976563-3.988281-9.789063-5.402344-15.152344-3.746094l-12.285156 3.828125 2.851562-9.117187c1.863282-5.996094-.113281-12.367188-5.039062-16.25-4.925782-3.894531-11.605469-4.339844-17.007813-1.128907-23.347656 13.8125-37.246093 26.179688-41.3125 36.734376l-16.777343 82.230468c-31.339844-9.667968-67.78125-5.234375-102.160157 11.183594l-.019531-.019531-1.703125.886719c-10.105469 4.957031-20.007813 10.953124-29.550781 17.949218-.730469.527344-1.445313 1.078125-2.164063 1.617188-3.035156 2.292968-6.035156 4.675781-8.988281 7.175781-.964844.808594-1.945312 1.609375-2.894531 2.4375-3.585938 3.128906-7.117188 6.371094-10.554688 9.800781-3.675781 3.675782-7.113281 7.46875-10.449219 11.324219-.753906.867187-1.480468 1.75-2.214843 2.625-3.214844 3.828125-6.277344 7.722656-9.15625 11.699219-.007813.011718-.015625.019531-.015625.027344-7.9375 10.980468-14.546875 22.445312-19.792969 34.125l-.140625.277343.011719.011719c-14.644531 32.746094-18.460938 67.113281-9.59375 96.945312l-71.863281 10.65625-1.992188.5c-11.207031 4.3125-24.171875 18.332032-38.53125 41.652344-3.355469 5.449219-2.980469 12.230469.929688 17.269532 3.902343 5.027343 10.367187 7.066406 16.476562 5.167968l8.511719-2.65625-3.816407 12.257813c-1.675781 5.375-.242187 11.195312 3.742188 15.171875 3.996094 3.996094 9.808594 5.421875 15.164062 3.734375l12.257813-3.820313-3.820313 12.269532c-1.675781 5.363281-.242187 11.175781 3.734376 15.160156 3.988281 3.988281 9.800781 5.382812 15.183593 3.746094l12.257813-3.828126-3.820313 12.265626c-1.675781 5.375-.242187 11.195312 3.746094 15.171874 3.984375 3.988282 9.804687 5.429688 15.160156 3.734376l12.257813-3.816407-2.644532 8.5c-1.910156 6.089844.121094 12.566407 5.15625 16.476563 2.75 2.132812 6.011719 3.222656 9.296876 3.222656 2.738281 0 5.496093-.753906 7.972656-2.28125 23.320312-14.363281 37.335937-27.328125 41.640625-38.53125l11.640625-75.355469c29.125 7.8125 62.449218 3.726563 94.179687-10.386719l.09375.09375 2.664063-1.304687c5.832031-2.710937 11.578125-5.785156 17.25-9.164063.34375-.203124.6875-.398437 1.035156-.605468 4.46875-2.699219 8.875-5.558594 13.203125-8.660156.402344-.289063.785156-.605469 1.183594-.894532 3.585937-2.617187 7.105469-5.382812 10.570312-8.269531 1.042969-.863281 2.078125-1.730469 3.101563-2.617187 3.773437-3.269532 7.496094-6.648438 11.09375-10.234376 3.359375-3.363281 6.535156-6.835937 9.621094-10.359374.996093-1.132813 1.9375-2.289063 2.902343-3.445313 2.136719-2.542969 4.183594-5.113281 6.167969-7.730469.921875-1.210937 1.851562-2.421875 2.746094-3.660156 2.644531-3.648438 5.179687-7.328125 7.535156-11.082031.054688-.09375.121094-.167969.167969-.261719 2.496093-3.984375 4.761719-8.027344 6.921875-12.105469.203125-.390625.457031-.765625.660156-1.15625l3.148438-6.054687-.085938-.082032c15.863281-33.363281 20.539062-68.773437 12.015625-99.433593l82.183594-16.820313 1.472656-.429687c3.871094-1.488281 15.65625-6.015625 36.136719-40.28125 3.332031-5.542969 2.882812-12.40625-1.109375-17.492188zm-153.816407 178.457031c-1.683593 2.925782-3.484374 5.804688-5.335937 8.644532-.449219.679687-.875 1.359375-1.324219 2.027344-1.675781 2.488281-3.445312 4.921874-5.25 7.339843-.652344.867188-1.269531 1.742188-1.929687 2.597657-1.796875 2.320312-3.6875 4.574218-5.605469 6.820312-.707031.828125-1.371094 1.683594-2.097656 2.503906-2.652344 3.011719-5.410156 5.960938-8.28125 8.839844-3.035156 3.039062-6.164063 5.925781-9.347656 8.71875-.867188.753906-1.75 1.460938-2.617188 2.195312-2.496094 2.105469-5.027344 4.175782-7.621094 6.128907-.742187.570312-1.496094 1.117187-2.242187 1.667969-3.222657 2.367187-6.484375 4.648437-9.828125 6.777343-.015625.011719-.035156.019531-.054688.039063-3.761718 2.394531-7.609375 4.648437-11.53125 6.746094l-34.523437-34.519532-3.390625-.289062c-16.390625-1.40625-31.804688-8.566406-43.402344-20.171875-11.601562-11.605469-18.765625-27.007813-20.164062-43.390625l-.289063-3.390625-32.53125-32.523438c.71875-1.339843 1.480469-2.664062 2.234375-3.988281 1.027344-1.796875 2.050781-3.59375 3.140625-5.355469 1.070313-1.738281 2.199219-3.460937 3.34375-5.175781 1.164063-1.753906 2.367187-3.484375 3.59375-5.207031 1.148437-1.605469 2.3125-3.207031 3.519531-4.789063 1.5-1.949218 3.066406-3.867187 4.640625-5.765625 1.050781-1.265625 2.066407-2.542969 3.144531-3.792969 2.757813-3.144531 5.609376-6.230468 8.597657-9.226562 2.832031-2.832031 5.738281-5.542969 8.699219-8.160156 1.640624-1.445313 3.335937-2.792969 5.011718-4.171875 1.320313-1.089844 2.617188-2.207031 3.964844-3.25 2.023438-1.566407 4.082031-3.039063 6.140625-4.507813 1.0625-.753906 2.105469-1.546875 3.183594-2.273437 2.152343-1.460938 4.332031-2.839844 6.519531-4.199219 1.050781-.652344 2.105469-1.324219 3.167969-1.949219.886719-.519531 1.789062-.984375 2.671875-1.496093l33.378906 33.386718 3.390625.28125c16.402344 1.394532 31.824219 8.558594 43.429687 20.171875 11.613282 11.601563 18.777344 27.027344 20.164063 43.429688l.289063 3.390625 35.429687 35.417968c-.101563.144532-.195313.300782-.289063.46875zm-175.234374 83.050782-10.84375-4.199219-14.332032 94.597656c-2.765625 5.847657-12.082031 14.296875-25.722656 23.449219l1.804688-5.808594c1.675781-5.375.242187-11.195312-3.742188-15.171875-2.890625-2.886719-6.726562-4.433593-10.65625-4.433593-1.507812 0-3.027344.222656-4.507812.6875l-12.257813 3.820312 3.820313-12.257812c1.675781-5.375.242187-11.175782-3.734376-15.164063-3.976562-3.992187-9.789062-5.398437-15.183593-3.75l-12.257813 3.828125 3.820313-12.269531c1.675781-5.371094.242187-11.195313-3.746094-15.171875-3.984375-3.984375-9.777344-5.398438-15.160156-3.734375l-12.257813 3.820312 3.820313-12.257812c1.675781-5.371094.242187-11.195313-3.746094-15.171875-3.976563-3.984375-9.796875-5.390625-15.160156-3.734375l-5.824219 1.816406c9.148438-13.644531 17.605469-22.957031 23.460938-25.734375l93.824218-13.902344-4.691406-11.085937c-10.65625-25.128907-9-56.207031 2.828125-86.449219l22.941406 22.941406c2.441407 19.453125 11.304688 37.632813 25.191407 51.511719 13.878906 13.878906 32.058593 22.742187 51.523437 25.195313l25.042969 25.042968c-29.230469 11.492188-59.199219 13.300782-84.253906 3.585938zm287.910156-221.347656-102.421875 20.957031 4.0625 10.308593c10.394531 26.402344 7.925781 58.273438-5.242188 88.992188l-26.320312-26.3125c-2.441407-19.464844-11.296875-37.664062-25.195313-51.550781-13.886718-13.894531-32.085937-22.761719-51.550781-25.191407l-24.222656-24.234374c31.75-13.503907 64.785156-15.785157 91.207031-4.414063l10.535156 4.523437 20.582032-101.667968c2.03125-4.265625 9.59375-11.863282 25.0625-21.828125l-1.992188 6.386719c-1.667969 5.367187-.234375 11.175781 3.734375 15.15625 3.976563 3.976562 9.796875 5.410156 15.152344 3.734374l12.285156-3.832031-3.828125 12.285157c-1.667969 5.375-.234375 11.1875 3.746094 15.164062 3.984375 3.976562 9.804687 5.394531 15.152344 3.734375l12.285156-3.828125-3.828125 12.273438c-1.675781 5.367187-.253907 11.167968 3.726562 15.15625 3.984375 3.984374 9.789063 5.410156 15.160157 3.742187l12.285156-3.828125-3.828125 12.285156c-1.667969 5.367188-.230469 11.175782 3.734375 15.152344 3.976562 3.980469 9.808594 5.386719 15.164062 3.734375l6.386719-1.992187c-9.972656 15.511718-17.59375 23.070312-21.832031 25.09375zm0 0"/><path d="m213.628906 222.289062c-19.96875 19.980469-19.96875 52.472657 0 72.441407 9.984375 9.984375 23.097656 14.976562 36.222656 14.976562 13.121094 0 26.234376-4.992187 36.21875-14.976562 19.96875-19.976563 19.96875-52.472657 0-72.441407s-52.460937-19.96875-72.441406 0zm59.273438 59.273438c-12.714844 12.691406-33.390625 12.691406-46.105469 0-12.703125-12.714844-12.703125-33.390625 0-46.105469 6.355469-6.351562 14.707031-9.527343 23.054687-9.527343 8.34375 0 16.6875 3.1875 23.050782 9.527343 12.703125 12.714844 12.703125 33.390625 0 46.105469zm0 0"/><path d="m401.53125 134.210938c-4.789062.597656-8.988281.746093-13.046875.886718-3.363281.117188-6.671875.25-9.976563.640625 10.152344-15.886719 15.183594-35.96875 12.742188-55.453125-.632812-5.113281-5.328125-8.679687-10.394531-8.082031-5.105469.632813-8.726563 5.289063-8.082031 10.394531 2.996093 23.960938-8.875 49.9375-27.617188 60.425782-4.488281 2.523437-6.089844 8.195312-3.574219 12.675781 1.488281 2.65625 4.097657 4.230469 6.902344 4.601562.484375 1.742188 1.3125 3.390625 2.792969 4.648438 1.75 1.480469 3.882812 2.199219 6.007812 2.199219 2.644532 0 5.269532-1.121094 7.117188-3.300782 8.09375-9.5625 12.964844-9.730468 24.734375-10.140625 4.265625-.148437 9.089843-.316406 14.714843-1.015625 5.105469-.632812 8.730469-5.292968 8.085938-10.394531-.644531-5.105469-5.375-8.664063-10.40625-8.085937zm0 0"/><path d="m152.46875 358.453125c-.476562-1.765625-1.3125-3.453125-2.8125-4.71875-3.921875-3.328125-9.808594-2.84375-13.125 1.097656-8.082031 9.554688-12.957031 9.734375-24.71875 10.144531-4.265625.148438-9.109375.304688-14.730469 1.015626-5.105469.632812-8.730469 5.289062-8.085937 10.394531.585937 4.710937 4.601562 8.15625 9.230468 8.15625.390626 0 .773438-.027344 1.171876-.074219 4.796874-.597656 9-.746094 13.058593-.894531 3.355469-.109375 6.660157-.25 9.957031-.640625-10.140624 15.886718-15.179687 35.976562-12.742187 55.453125.589844 4.710937 4.601563 8.15625 9.230469 8.15625.390625 0 .773437-.027344 1.164062-.074219 5.105469-.632812 8.726563-5.289062 8.085938-10.394531-3-23.972657 8.875-49.949219 27.613281-60.433594 4.492187-2.523437 6.089844-8.195313 3.578125-12.675781-1.484375-2.640625-4.082031-4.121094-6.875-4.511719zm0 0"/></svg>